<?xml version="1.0" encoding="utf-8"?>
<!-- Generator: Adobe Illustrator 19.0.0, SVG Export Plug-In . SVG Version: 6.00 Build 0)  -->
<svg version="1.1" id="Layer_1" xmlns="http://www.w3.org/2000/svg" xmlns:xlink="http://www.w3.org/1999/xlink" x="0px" y="0px"
	 viewBox="-146 -462 4363.4 419.8" style="enable-background:new -146 -462 4363.4 419.8;" xml:space="preserve">
<style type="text/css">
	.st0{fill:#FF8C18;}
	.st1{display:none;fill:#615F5C;}
	.st2{display:none;fill:none;stroke:#000000;stroke-width:0.7;}
	.st3{display:none;fill:#FF8C16;}
	.st4{clip-path:url(#SVGID_2_);fill:#FF8C18;}
</style>
<desc  codePlatform="0" iVinci="yes" showGrid="no" gridStep="20" snapToGrid="no" version="4.6"></desc>
<g id="Layer1">
	<g id="Shape1">
		
			<desc  locked="0" shadowOffsetX="0" pers-center="0,0" font-bold="1" font-alignment="1" markerEnd="0" shadowBlur="4" blurRadius="4" blurEnabled="0" markerStart="0" bounding="rect(-313.5,-188.5,627,377)" strokeStyle="0" shadowEnabled="0" shadowOpacity="160" pers-size="0,0" font-underline="0" shadowOffsetY="2" text="OpenWeatherMap" font-pixelSize="66" font-familyName="Raanana" shapeID="1" pers-start="0,0" mesh="" flag="" pers-end="0,0" transform="matrix(1,0,0,1,321,239)" type="2" basicInfo-basicType="0" basicInfo-roundedRectRadius="12" basicInfo-polygonSides="6" basicInfo-starPoints="5">
			</desc>
		<path id="shapePath1" class="st0" d="M503.5-116.4c-47.3,0-85.1-14.9-113.5-44.6c-28.4-29.7-42.5-69.4-42.5-118.9
			c0-50.1,14.2-89.9,42.7-119.4c28.5-29.5,66.9-44.2,115.4-44.2c48.1,0,86.5,14.7,115.1,44.2c28.6,29.5,42.8,69,42.8,118.7
			c0,50.8-14.3,90.9-42.8,120.2C592.1-131.1,553-116.4,503.5-116.4 M504.3-159.4c27.8,0,49.8-10.9,66-32.7
			c16.2-21.8,24.3-51.4,24.3-88.7c0-36.2-8.1-65.3-24.4-87.2c-16.3-21.9-37.8-32.8-64.6-32.8c-27.1,0-48.7,10.9-64.9,32.8
			c-16.2,21.9-24.3,51.2-24.3,87.8c0,36.3,8.1,65.6,24.2,87.7C456.7-170.4,477.9-159.4,504.3-159.4 M721.8-41.1v-314.3h62.3v43.6
			c16-32.6,41.2-48.8,75.6-48.8c27.8,0,49.6,10.2,65.6,30.5c15.9,20.4,23.9,48.4,23.9,84c0,38.7-9,69.6-26.9,92.6
			c-18,23-42,34.5-72.2,34.5c-24.3,0-46.2-9.5-65.9-28.6v106.5H721.8 M784.1-184.6c15.2,16.8,31.3,25.3,48.4,25.3
			c15.3,0,27.5-7.4,36.6-22.2c9.1-14.8,13.7-34.6,13.7-59.3c0-47.3-15.2-70.9-45.7-70.9c-18.4,0-36.1,11.9-53.1,35.6V-184.6
			 M1195.6-132c-29.6,8.7-57.7,13.1-84.2,13.1c-38.6,0-69-10.9-91.4-32.8c-22.3-21.9-33.5-51.8-33.5-89.7
			c0-35.8,10.2-64.6,30.6-86.4c20.4-21.8,47.4-32.7,81-32.7c33.8,0,58.5,10.7,74.1,32c15.6,21.3,23.4,55.1,23.4,101.3h-143.4
			c4.2,44.1,28.4,66.1,72.6,66.1c20.9,0,44.5-4.8,70.7-14.5V-132 M1051.3-262.5h83c0-39.4-12.7-59.2-38.1-59.2
			C1070.4-321.7,1055.4-302,1051.3-262.5 M1260-124.2v-231.2h62.3v43.6c20.3-32.6,46.6-48.8,78.7-48.8c20.6,0,36.9,6.5,48.8,19.6
			c11.9,13.1,17.9,30.9,17.9,53.5v163.4h-62.3v-148c0-26.2-8.7-39.4-26.1-39.4c-19.8,0-38.8,14-57,41.9v145.5H1260 M1586.3-124.2
			l-77.7-311.6h61.3l56.8,228l53.7-228h54.1l50.9,226.7l59.8-226.7h44.8l-81.7,311.6h-61.9l-48-213.7l-50.3,213.7H1586.3
			 M2120.9-132c-29.6,8.7-57.7,13.1-84.2,13.1c-38.6,0-69-10.9-91.4-32.8c-22.3-21.9-33.5-51.8-33.5-89.7
			c0-35.8,10.2-64.6,30.6-86.4c20.4-21.8,47.4-32.7,80.9-32.7c33.8,0,58.5,10.7,74.1,32c15.6,21.3,23.4,55.1,23.4,101.3h-143.4
			c4.2,44.1,28.4,66.1,72.6,66.1c20.9,0,44.5-4.8,70.7-14.5V-132 M1976.7-262.5h82.9c0-39.4-12.7-59.2-38.1-59.2
			C1995.8-321.7,1980.8-302,1976.7-262.5 M2298.6-149.1c-20.8,20.1-43,30.1-66.7,30.1c-20.2,0-36.6-6.2-49.3-18.5
			c-12.6-12.4-18.9-28.4-18.9-48c0-25.5,10.2-45.2,30.6-59.1c20.4-13.8,49.6-20.7,87.7-20.7h16.6v-21.1c0-24-13.7-36-41.1-36
			c-24.3,0-48.8,6.9-73.7,20.6v-42.9c28.2-10.7,56.1-16,83.8-16c60.5,0,90.7,24.1,90.7,72.2v102.3c0,18.1,5.8,27.2,17.5,27.2
			c2.1,0,4.8-0.3,8.2-0.8l1.5,34.9c-13.2,3.9-24.8,5.9-34.9,5.9c-25.5,0-42-10-49.3-30.1H2298.6 M2298.6-182.5v-46.9h-14.7
			c-40.3,0-60.4,12.6-60.4,37.9c0,8.6,2.9,15.8,8.7,21.6c5.8,5.8,13,8.7,21.6,8.7C2268.4-161.3,2283.3-168.4,2298.6-182.5
			 M2558-125.5c-14.9,4.4-26.6,6.5-35.2,6.5c-54,0-81.1-25.3-81.1-75.8v-121.7h-25.9v-38.9h25.9v-38.9l62.3-7.2v46.1h49.5v38.9
			h-49.5V-203c0,28.4,11.6,42.5,34.7,42.5c5.3,0,11.7-1,19.2-2.9V-125.5 M2613.4-124.2v-332.4h62.3v144.8
			c20.4-32.6,46.6-48.8,78.7-48.8c20.6,0,36.9,6.5,48.8,19.6c11.9,13.1,17.9,30.9,17.9,53.5v163.4h-62.3v-148
			c0-26.2-8.7-39.4-26.1-39.4c-19.8,0-38.8,14-57.1,41.9v145.5H2613.4 M3084.8-132c-29.6,8.7-57.7,13.1-84.2,13.1
			c-38.6,0-69-10.9-91.4-32.8c-22.3-21.9-33.5-51.8-33.5-89.7c0-35.8,10.2-64.6,30.6-86.4c20.4-21.8,47.4-32.7,80.9-32.7
			c33.8,0,58.5,10.7,74.1,32c15.6,21.3,23.4,55.1,23.4,101.3h-143.4c4.2,44.1,28.4,66.1,72.6,66.1c20.9,0,44.5-4.8,70.7-14.5V-132
			 M2940.6-262.5h83c0-39.4-12.7-59.2-38.1-59.2C2959.6-321.7,2944.7-302,2940.6-262.5 M3149.2-124.2v-231.2h62.3v43.6
			c16.1-32.6,40.7-48.8,73.7-48.8c3.9,0,7.8,0.4,11.6,1.3v55.6c-8.8-3.2-17.1-4.8-24.6-4.8c-24.8,0-45,12.6-60.6,37.7v146.7H3149.2
			 M3345.2-124.2v-311.6h85.9l74.9,219.1l77.3-219.1h75.4v311.6h-59.8v-235.2l-76,214.3h-52.2l-74.5-217.5v238.3H3345.2
			 M3849.8-149.1c-20.8,20.1-43,30.1-66.7,30.1c-20.2,0-36.6-6.2-49.3-18.5c-12.6-12.4-18.9-28.4-18.9-48
			c0-25.5,10.2-45.2,30.6-59.1c20.4-13.8,49.6-20.7,87.7-20.7h16.6v-21.1c0-24-13.7-36-41.1-36c-24.3,0-48.8,6.9-73.7,20.6v-42.9
			c28.2-10.7,56.1-16,83.8-16c60.5,0,90.7,24.1,90.7,72.2v102.3c0,18.1,5.8,27.2,17.5,27.2c2.1,0,4.8-0.3,8.2-0.8l1.5,34.9
			c-13.2,3.9-24.8,5.9-34.9,5.9c-25.5,0-42-10-49.3-30.1H3849.8 M3849.8-182.5v-46.9h-14.7c-40.3,0-60.4,12.6-60.4,37.9
			c0,8.6,2.9,15.8,8.7,21.6c5.8,5.8,13,8.7,21.6,8.7C3819.6-161.3,3834.5-168.4,3849.8-182.5 M3990-41.1v-314.3h62.3v43.6
			c16-32.6,41.2-48.8,75.6-48.8c27.8,0,49.7,10.2,65.6,30.5c15.9,20.4,23.9,48.4,23.9,84c0,38.7-9,69.6-26.9,92.6
			c-18,23-42,34.5-72.2,34.5c-24.3,0-46.2-9.5-65.9-28.6v106.5H3990 M4052.3-184.6c15.2,16.8,31.3,25.3,48.4,25.3
			c15.3,0,27.5-7.4,36.6-22.2c9.1-14.8,13.7-34.6,13.7-59.3c0-47.3-15.2-70.9-45.7-70.9c-18.4,0-36.1,11.9-53.1,35.6V-184.6z"/>
	</g>
</g>
<g>
	<rect x="-135" y="-439.2" class="st1" width="390.7" height="383"/>
	<rect x="-135" y="-439.2" class="st2" width="390.7" height="383"/>
	<path class="st3" d="M17-283.4c0-1.9,0.3-3.5,0.9-4.8c0.4-1,1-1.8,1.7-2.6c0.7-0.8,1.5-1.3,2.4-1.7c1.2-0.5,2.5-0.7,4-0.7
		c2.7,0,4.9,0.9,6.6,2.6c1.6,1.7,2.5,4.1,2.5,7.1c0,3-0.8,5.4-2.5,7.1c-1.6,1.7-3.8,2.5-6.6,2.5c-2.8,0-5-0.8-6.6-2.5
		C17.8-278.1,17-280.5,17-283.4L17-283.4z M20.9-283.6c0,2.1,0.5,3.7,1.5,4.8c1,1.1,2.2,1.6,3.7,1.6c1.5,0,2.7-0.5,3.7-1.6
		c1-1.1,1.4-2.7,1.4-4.9c0-2.1-0.5-3.7-1.4-4.8c-0.9-1.1-2.2-1.6-3.7-1.6c-1.5,0-2.8,0.5-3.7,1.6C21.4-287.3,20.9-285.7,20.9-283.6
		L20.9-283.6z M20.9-283.6"/>
	<path class="st3" d="M39-287.7h3.3v2c0.4-0.7,1-1.2,1.8-1.7c0.7-0.4,1.6-0.6,2.5-0.6c1.6,0,2.9,0.6,4,1.8c1.1,1.2,1.6,2.9,1.6,5.1
		c0,2.3-0.5,4-1.6,5.3c-1.1,1.2-2.4,1.9-4,1.9c-0.7,0-1.4-0.1-2-0.4c-0.6-0.3-1.2-0.8-1.9-1.5v6.8H39V-287.7z M42.6-281.2
		c0,1.5,0.3,2.6,0.9,3.4c0.6,0.7,1.3,1.1,2.2,1.1c0.8,0,1.5-0.3,2.1-1c0.6-0.7,0.8-1.8,0.8-3.3c0-1.4-0.3-2.5-0.9-3.1
		c-0.6-0.7-1.3-1-2.1-1c-0.9,0-1.6,0.3-2.2,1C42.9-283.5,42.6-282.5,42.6-281.2L42.6-281.2z M42.6-281.2"/>
	<path class="st3" d="M64.2-278.5l3.6,0.6c-0.5,1.3-1.2,2.3-2.2,3c-1,0.7-2.2,1-3.7,1c-2.3,0-4.1-0.8-5.2-2.3
		c-0.9-1.2-1.3-2.8-1.3-4.6c0-2.2,0.6-4,1.7-5.3c1.2-1.3,2.6-1.9,4.4-1.9c2,0,3.6,0.7,4.7,2c1.2,1.3,1.7,3.4,1.7,6.1H59
		c0,1.1,0.3,1.9,0.9,2.5c0.6,0.6,1.2,0.9,2.1,0.9c0.6,0,1-0.2,1.4-0.5C63.7-277.4,64-277.9,64.2-278.5L64.2-278.5z M64.4-282.1
		c0-1-0.3-1.8-0.8-2.4c-0.5-0.5-1.1-0.8-1.9-0.8c-0.8,0-1.4,0.3-1.9,0.9c-0.5,0.6-0.8,1.3-0.8,2.3H64.4z M64.4-282.1"/>
	<path class="st3" d="M83.9-274.2h-3.6v-6.9c0-1.5-0.1-2.4-0.2-2.8c-0.2-0.4-0.4-0.8-0.7-1c-0.3-0.2-0.8-0.4-1.2-0.4
		c-0.6,0-1.2,0.2-1.7,0.5c-0.5,0.3-0.8,0.8-1,1.3c-0.2,0.6-0.3,1.6-0.3,3.1v6.1h-3.6v-13.5h3.3v2c1.2-1.5,2.7-2.3,4.4-2.3
		c0.8,0,1.5,0.1,2.2,0.4c0.6,0.3,1.1,0.6,1.5,1.1c0.3,0.4,0.6,0.9,0.7,1.5c0.1,0.6,0.2,1.4,0.2,2.4V-274.2z M83.9-274.2"/>
	<path class="st3" d="M20.4-241.2L16-259.9h3.8l2.8,12.8l3.4-12.8h4.5l3.3,13l2.9-13h3.8l-4.5,18.6h-4l-3.7-13.9l-3.7,13.9H20.4z
		 M20.4-241.2"/>
	<path class="st3" d="M48.8-245.5l3.6,0.6c-0.5,1.3-1.2,2.3-2.2,3c-1,0.7-2.2,1-3.7,1c-2.3,0-4.1-0.8-5.2-2.3
		c-0.9-1.2-1.3-2.8-1.3-4.6c0-2.2,0.6-4,1.8-5.3c1.2-1.3,2.6-1.9,4.4-1.9c2,0,3.6,0.7,4.7,2c1.2,1.3,1.7,3.4,1.7,6.1h-8.9
		c0,1.1,0.3,1.9,0.9,2.5c0.6,0.6,1.2,0.9,2.1,0.9c0.6,0,1-0.2,1.4-0.5C48.3-244.4,48.6-244.9,48.8-245.5L48.8-245.5z M49-249.1
		c0-1-0.3-1.8-0.8-2.4c-0.5-0.5-1.1-0.8-1.9-0.8c-0.8,0-1.4,0.3-1.9,0.9c-0.5,0.6-0.8,1.3-0.8,2.3H49z M49-249.1"/>
	<path class="st3" d="M58.9-250.6l-3.2-0.6c0.4-1.3,1-2.3,1.9-2.9c0.9-0.6,2.2-0.9,4-0.9c1.6,0,2.8,0.2,3.6,0.6
		c0.8,0.4,1.3,0.9,1.6,1.4c0.3,0.6,0.5,1.6,0.5,3.2l0,4.2c0,1.2,0.1,2.1,0.2,2.6c0.1,0.6,0.3,1.2,0.6,1.8h-3.5
		c-0.1-0.2-0.2-0.6-0.3-1.1c-0.1-0.2-0.1-0.4-0.1-0.4c-0.6,0.6-1.3,1-2,1.3c-0.7,0.3-1.4,0.4-2.2,0.4c-1.4,0-2.5-0.4-3.3-1.1
		c-0.8-0.8-1.2-1.7-1.2-2.9c0-0.8,0.2-1.4,0.5-2c0.4-0.6,0.9-1.1,1.5-1.4c0.7-0.3,1.6-0.6,2.8-0.8c1.7-0.3,2.8-0.6,3.5-0.9v-0.4
		c0-0.7-0.2-1.2-0.5-1.5c-0.3-0.3-1-0.4-1.9-0.4c-0.6,0-1.1,0.1-1.5,0.4C59.4-251.7,59.1-251.2,58.9-250.6L58.9-250.6z M63.7-247.7
		c-0.5,0.2-1.2,0.3-2.2,0.5c-1,0.2-1.6,0.4-1.9,0.6c-0.5,0.3-0.7,0.8-0.7,1.3c0,0.5,0.2,0.9,0.6,1.3c0.4,0.4,0.8,0.5,1.4,0.5
		c0.6,0,1.3-0.2,1.8-0.6c0.4-0.3,0.7-0.7,0.9-1.2c0.1-0.3,0.1-0.9,0.1-1.7V-247.7z M63.7-247.7"/>
	<path class="st3" d="M77.7-254.7v2.8h-2.4v5.4c0,1.1,0,1.7,0.1,1.9c0,0.2,0.2,0.3,0.3,0.4c0.2,0.1,0.4,0.2,0.6,0.2
		c0.3,0,0.8-0.1,1.4-0.3l0.3,2.8c-0.8,0.4-1.8,0.5-2.8,0.5c-0.6,0-1.2-0.1-1.7-0.3c-0.5-0.2-0.9-0.5-1.1-0.8
		c-0.2-0.3-0.4-0.8-0.5-1.4c-0.1-0.4-0.1-1.3-0.1-2.5v-5.9h-1.6v-2.8h1.6v-2.7l3.6-2.1v4.8H77.7z M77.7-254.7"/>
	<path class="st3" d="M85.6-259.9v6.8c1.1-1.3,2.5-2,4.1-2c0.8,0,1.6,0.2,2.2,0.5c0.7,0.3,1.2,0.7,1.5,1.2c0.3,0.5,0.6,1,0.7,1.6
		c0.1,0.6,0.2,1.5,0.2,2.7v7.9h-3.6v-7.1c0-1.4-0.1-2.3-0.2-2.7c-0.1-0.4-0.4-0.7-0.7-0.9c-0.3-0.2-0.8-0.3-1.3-0.3
		c-0.6,0-1.1,0.1-1.6,0.4c-0.5,0.3-0.8,0.7-1,1.3c-0.2,0.6-0.3,1.4-0.3,2.6v6.8h-3.6v-18.6H85.6z M85.6-259.9"/>
	<path class="st3" d="M107-245.5l3.6,0.6c-0.5,1.3-1.2,2.3-2.2,3c-1,0.7-2.2,1-3.7,1c-2.3,0-4.1-0.8-5.2-2.3
		c-0.9-1.2-1.3-2.8-1.3-4.6c0-2.2,0.6-4,1.8-5.3c1.2-1.3,2.6-1.9,4.4-1.9c2,0,3.6,0.7,4.7,2c1.2,1.3,1.7,3.4,1.7,6.1h-8.9
		c0,1.1,0.3,1.9,0.9,2.5c0.5,0.6,1.2,0.9,2.1,0.9c0.6,0,1-0.2,1.4-0.5C106.5-244.4,106.8-244.9,107-245.5L107-245.5z M107.2-249.1
		c0-1-0.3-1.8-0.8-2.4c-0.5-0.5-1.1-0.8-1.9-0.8c-0.8,0-1.4,0.3-1.9,0.9c-0.5,0.6-0.8,1.3-0.8,2.3H107.2z M107.2-249.1"/>
	<path class="st3" d="M117.8-241.2h-3.6v-13.5h3.3v1.9c0.6-0.9,1.1-1.5,1.5-1.8c0.5-0.3,1-0.4,1.5-0.4c0.8,0,1.6,0.2,2.3,0.7
		l-1.1,3.1c-0.6-0.4-1.2-0.6-1.7-0.6c-0.5,0-0.9,0.1-1.3,0.4c-0.3,0.3-0.6,0.8-0.8,1.5c-0.2,0.7-0.3,2.2-0.3,4.5V-241.2z
		 M117.8-241.2"/>
	<path class="st3" d="M17.7-208.2v-18.6h5.6l3.4,12.7l3.3-12.7h5.6v18.6h-3.5v-14.7l-3.7,14.7h-3.6l-3.7-14.7v14.7H17.7z
		 M17.7-208.2"/>
	<path class="st3" d="M44-217.6l-3.2-0.6c0.4-1.3,1-2.3,1.9-2.9c0.9-0.6,2.2-0.9,4-0.9c1.6,0,2.8,0.2,3.6,0.6
		c0.8,0.4,1.3,0.9,1.6,1.4c0.3,0.6,0.5,1.6,0.5,3.2l0,4.2c0,1.2,0.1,2.1,0.2,2.6c0.1,0.6,0.3,1.2,0.6,1.8h-3.5
		c-0.1-0.2-0.2-0.6-0.3-1.1c-0.1-0.2-0.1-0.4-0.1-0.4c-0.6,0.6-1.3,1-2,1.3c-0.7,0.3-1.4,0.4-2.2,0.4c-1.4,0-2.5-0.4-3.3-1.1
		c-0.8-0.8-1.2-1.7-1.2-2.9c0-0.8,0.2-1.4,0.5-2c0.4-0.6,0.9-1.1,1.5-1.4c0.7-0.3,1.6-0.6,2.8-0.8c1.7-0.3,2.8-0.6,3.5-0.9v-0.4
		c0-0.7-0.2-1.2-0.5-1.5c-0.3-0.3-1-0.4-1.9-0.4c-0.6,0-1.1,0.1-1.5,0.4C44.5-218.7,44.3-218.2,44-217.6L44-217.6z M48.8-214.7
		c-0.5,0.2-1.2,0.3-2.2,0.5c-1,0.2-1.6,0.4-1.9,0.6c-0.5,0.3-0.7,0.8-0.7,1.3c0,0.5,0.2,0.9,0.6,1.3c0.4,0.4,0.8,0.5,1.4,0.5
		c0.6,0,1.3-0.2,1.8-0.6c0.4-0.3,0.7-0.7,0.9-1.2c0.1-0.3,0.1-0.9,0.1-1.7V-214.7z M48.8-214.7"/>
	<path class="st3" d="M56.5-221.7h3.3v2c0.4-0.7,1-1.2,1.8-1.6c0.7-0.4,1.6-0.6,2.5-0.6c1.6,0,2.9,0.6,4,1.8
		c1.1,1.2,1.6,2.9,1.6,5.1c0,2.3-0.6,4-1.7,5.3c-1.1,1.3-2.4,1.9-4,1.9c-0.7,0-1.4-0.1-2-0.4c-0.6-0.3-1.2-0.8-1.9-1.5v6.8h-3.6
		V-221.7z M60.1-215.2c0,1.5,0.3,2.6,0.9,3.4c0.6,0.7,1.3,1.1,2.2,1.1c0.8,0,1.5-0.3,2.1-1c0.5-0.7,0.8-1.8,0.8-3.3
		c0-1.4-0.3-2.5-0.9-3.1c-0.6-0.7-1.3-1-2.1-1c-0.9,0-1.6,0.3-2.2,1C60.3-217.5,60.1-216.5,60.1-215.2L60.1-215.2z M60.1-215.2"/>
	<g>
		<defs>
			<rect id="SVGID_1_" x="-146" y="-462" width="419.8" height="419.8"/>
		</defs>
		<clipPath id="SVGID_2_">
			<use xlink:href="#SVGID_1_"  style="overflow:visible;"/>
		</clipPath>
		<path class="st4" d="M-146-462.2h420v420h-420V-462.2z M102.3-147.7c-11.9,4.4-24.8,6.8-38.3,6.8c-13.5,0-26.4-2.4-38.3-6.8
			L64-70.1L102.3-147.7z M-36.9-205.4l-27.8,82l82-27.8C-6.6-162.3-25.9-181.6-36.9-205.4L-36.9-205.4z M164.9-205.4
			c-11.1,23.9-30.3,43.1-54.2,54.2l82,27.8L164.9-205.4z M64-336.1c-48.7,0-88.1,37.6-88.1,83.9s39.4,83.9,88.1,83.9
			c48.6,0,88.1-37.6,88.1-83.9S112.6-336.1,64-336.1L64-336.1z M-40.5-290.5l-77.6,38.3l77.6,38.3c-4.4-11.9-6.8-24.8-6.8-38.3
			C-47.3-265.6-44.9-278.5-40.5-290.5L-40.5-290.5z M168.5-290.5c4.4,11.9,6.8,24.8,6.8,38.3c0,13.5-2.4,26.4-6.8,38.3l77.6-38.3
			L168.5-290.5L168.5-290.5z M-64.8-381l27.8,82c11.1-23.8,30.3-43.1,54.2-54.2L-64.8-381z M192.8-381l-82,27.8
			c23.9,11.1,43.1,30.3,54.2,54.2L192.8-381z M64-434.3l-38.3,77.6c11.9-4.4,24.8-6.8,38.3-6.8c13.5,0,26.4,2.4,38.3,6.8L64-434.3z
			 M64-434.3"/>
	</g>
</g>
</svg>
